<svg version="1" xmlns="http://www.w3.org/2000/svg" width="682.667" height="682.667" viewBox="0 0 512.000000 512.000000"><path d="M0 90c0 87.9 0 90 1.9 91 2.6 1.3 5.2 1.4 3.1 0-1.2-.8-1-1 .9-1 1.6 0 2.1-.4 1.8-1.5-.4-.8-.2-1.7.3-2 .6-.4 1-.1 1 .4 0 .6.8 1 1.7.9 4-.3 5.5.2 4.9 1.7-.3.8-.1 1.5.4 1.5s.8-1.3.7-2.9c-.1-1.7-.6-2.6-1.1-2.1-1 1-3.6.2-3.6-1.1 0-.4.6-.6 1.4-.3.7.3 1.6-.2 2-1.1.4-1.1 1.2-1.4 2.6-1 1.8.6 2 .3 1.4-1.9-.5-2.2-.3-2.6 1.4-2.6 2.2 0 3.9-1.6 2.2-2.2-.5-.2-.6-.9-.1-1.7.6-1 1.3-1 2.8-.3 1.1.6 2.9.9 4.1.6 1.5-.5 2.2 0 2.5 1.5.4 1.9.5 1.9.3-.1-.1-1.7-.8-2.4-2.8-2.6-1.7-.2-2.8-.9-2.8-1.9 0-1.2.3-1.3 1.3-.4 1.6 1.3 2.8.5 2.1-1.4-.3-.7-.1-2.3.6-3.4 1-2 1.2-2 3.8-.3l2.6 1.7-1.6-2.4c-1.9-2.7-.7-6.7 1.7-5.7.9.3 1.2-.1 1-1.5-.2-1.2.2-1.9 1.1-1.9.8 0 1.3.4.9.9-.3.5 0 1.3.6 1.7.8.4.9.3.5-.4s-.3-1.2.3-1.2c.5 0 1.5.8 2 1.7.6 1 1.1 1.3 1.1.7 0-.6-.7-1.7-1.5-2.4-1.9-1.6-1.9-2.6.1-3.4.8-.3 1.2-.2.9.4-.3.6.1 1 .9 1 1 0 1.3.6 1 1.5-.4.8-.2 1.5.3 1.5 2.1 0 2.1-1.4.2-3.8l-2-2.6 2.3-1.3c3.1-1.7 4.3-1.6 2.8.2-.7.8-.8 1.5-.4 1.5.5 0 1.5-.9 2.2-2 .7-1.1 2.1-2 3.1-2 2.8 0 3.6-1.9 1.5-3.5-1.8-1.3-1.7-1.4 1-2.4 2.4-1 2.6-1.4 1.6-2.6-.7-.9-1.1-1.8-.8-2.1.9-.8 6 1.5 5.3 2.5-.3.5 0 1.3.6 1.7.7.4.9.3.5-.4-.3-.6.1-1.8 1-2.6 1.4-1.5 1.3-1.6-.9-1.6-1.4 0-2.8-.7-3.1-1.6-.9-2.3-.7-3.1.3-1.5.7 1.2 1.4 1 3.6-.7 1.5-1.2 3.1-2 3.5-1.7.4.3 1.1-.3 1.4-1.2.4-.9.3-1.9-.3-2.2-.5-.3-.3-1.2.5-1.9s1.4-.9 1.4-.5.5 0 1.1-1c.5-.9.7-2.2.4-2.7-.3-.6-.1-1 .4-1 .6 0 1.1.5 1.1 1.1 0 .5.5.7 1.1.4.6-.4.8-.9.5-1.3-.3-.3.6-1.1 2-1.8 2.2-1.2 2.9-1.1 5.1.3 2.6 1.7 2.6 1.7 1.2-.5-.8-1.2-2.1-2.2-2.9-2.3-1 0-1.1-.2-.2-.6.6-.2 1-.9.7-1.4-.4-.5.2-.6 1.1-.2 1.1.4 1.5.2 1.1-.4-.9-1.4 1.6-3.4 4.5-3.6 1.3 0 2.6-.5 2.9-1 .4-.6 1.2 0 1.8 1.2.7 1.1 1.6 2.1 2.2 2.1.6 0 .6-.7-.1-2-.8-1.5-.8-2.1.2-2.4 4-1.3 4.2-1.4 2.2-1.5-1.6-.1-2.3-.9-2.6-2.9-.2-1.6.1-2.9.6-2.9.6 0 2.5-.4 4.1-.7l3-.7-3.2 1.5c-4 1.8-4.2 2.5-.5 1.8 3.6-.7 4.5-2.2 2.5-4.4-2.3-2.6-.1-5.1 3.3-3.8 2.2.9 2.3.8 1.1-1.1-.8-1.4-.9-2.2-.1-2.7.6-.4 1.4-1.4 1.8-2.2.3-.8.4-.5.2.7-.2 1.3 0 2.3.5 2.3s.9-.5.9-1c0-.6 1.1-1.5 2.4-2.2 1.4-.6 2.7-1.7 3-2.5.3-.8.2-1.1-.3-.8-.5.3-1.2.1-1.6-.5-.3-.5-.2-1 .4-1 .5 0 1.3-.9 1.6-2 .3-1.1 1.7-2.3 3-2.6 1.3-.3 2.6-1.5 2.8-2.6.4-1.5 1.2-1.9 3-1.6 2.1.4 2.3.1 1.9-2.1-.4-2.5-.4-2.5 1.2-.6 1.2 1.6 1.5 1.7 1.6.4 0-.8-.6-2.1-1.3-2.8-1.2-1.4-.9-1.4 3.9.5 1.2.5 1.4.1.8-2-.5-2.1-.3-2.5 1-2 .9.3 2.3.1 3.1-.6.8-.6 2.4-.9 3.7-.6 1.3.3 1.7.3 1 0-.6-.3-1-.9-.7-1.4.3-.4-.8-.7-2.4-.6-1.6 0-2.7.4-2.5.8.6.9-1.6 2.2-2.3 1.4-.4-.3.2-1.5 1.1-2.5 1-1.1 1.6-2.4 1.3-2.8-.3-.5.7-.8 2.1-.7 1.5.1 3.5.3 4.6.3 1.2.1 1.6.6 1.2 1.6-.6 1.7.9 2.1 1.9.5.6-1-1.3-3.6-2.8-3.7-1.7-.2-2-1.3-.4-1.3.9 0 1.6-.6 1.4-1.3-.1-.7.7-1.1 2.1-1 1.2.2 2.2-.2 2.2-.8 0-.5.4-.8.8-.5.4.2 1.4.1 2.2-.5 1.2-.7 1.1-.9-.5-.9-1.2 0-2.6.5-3.3 1.2-.7.7-1.2.9-1.2.4 0-.4 1.5-2.1 3.3-3.8 1.7-1.7 2.6-2.8 2-2.4-.7.4-1.3.2-1.3-.3 0-1.1 1.3-1.5 3.8-1.2.6.1 1.2-.8 1.2-2 0-1.7.3-1.9 1.4-1 1.6 1.4 3.2-.2 2.1-2-.9-1.3 2.5-3.8 4.2-3.2 1.5.6 1.8-1.3.3-2.2-.6-.4-.8-1.1-.4-1.6.4-.6 1.4-.3 2.5.7 1.1.9 2.2 1.4 2.7 1 .4-.4-.4-1.6-1.7-2.7-2.1-1.7-2.1-1.9-.5-2 4.9-.4 6-.3 6.6.6.5.6.8.5.8-.3 0-.7-.7-1.5-1.5-1.8-.8-.4-1.5-1.3-1.5-2.1 0-1 .6-1.3 1.6-.9.9.3 2.1.6 2.7.6.8 0 .8.3-.1.9-1 .6-1 1 .1 2 1.2.9 1.6.8 2-.3.4-.9-.2-2.1-1.4-3l-2.1-1.4L175 13c1.3-1.3 2.9-2 4.1-1.7 1 .3 1.9.1 1.9-.4s-.6-.9-1.2-.9c-.7 0 .4-1.6 2.5-3.5s4.3-3.5 4.9-3.5c.7 0 .6-.5-.2-1.5C185.9.2 173.7 0 92.9 0H0v90zM179 5c0 .5-.5 1-1.1 1-.5 0-.7-.5-.4-1 .3-.6.8-1 1.1-1 .2 0 .4.4.4 1zm-4.3 5.6c-.3.3-1.2.4-1.9.1-.8-.3-.5-.6.6-.6 1.1-.1 1.7.2 1.3.5zm-5.3 8.3c.4.5-.3.7-1.4.4-2.3-.6-2.6-1.3-.6-1.3.8 0 1.7.4 2 .9zM132 54.6c0 .2-.9 0-2-.6s-2-1.3-2-1.6c0-.2.9 0 2 .6s2 1.3 2 1.6zm-7 8.4c0 .5-.5 1-1.1 1-.5 0-.7-.5-.4-1 .3-.6.8-1 1.1-1 .2 0 .4.4.4 1zm-4 1.4c0 .3-.4.8-1 1.1-.5.3-1 .1-1-.4 0-.6.5-1.1 1-1.1.6 0 1 .2 1 .4zM112 77c0 .5-.5 1-1.1 1-.5 0-.7-.5-.4-1 .3-.6.8-1 1.1-1 .2 0 .4.4.4 1zM95 94.1c0 3.2-3.1 5.2-4.5 2.9-.3-.6.1-.7.9-.4 2.5 1 1.8-1.6-.6-2.6-2-.8-1.9-.9 1-.7 1.7 0 3.2.4 3.2.8zm-30.6 26.7c.3.5-.1.9-.9.9s-1.2-.4-.9-.9c.3-.4.7-.8.9-.8.2 0 .6.4.9.8zM51 133c0 .5-.5 1-1.1 1-.5 0-.7-.5-.4-1 .3-.6.8-1 1.1-1 .2 0 .4.4.4 1zm4 3c0 .5-.2 1-.4 1s-1.2.3-2 .6c-1.2.5-1.5.2-1-1 .7-1.7 3.4-2.2 3.4-.6zm-8.5 2.8c-.3.3-1.1 0-1.8-.7-.9-1-.8-1.1.6-.5 1 .3 1.5.9 1.2 1.2zM191.4 1.4c-.9 1-.7 1.6 1 2.6 1.6.9 1.8.9.9 0-.6-.7-.9-1.9-.6-2.6.6-1.7.2-1.7-1.3 0z"/><path d="M184 8c0 .5-.8.7-1.7.3-1.4-.5-1.6-.3-.6.7.6.7 1.9 1 2.7.7 1.8-.7 2.2-2.7.6-2.7-.5 0-1 .4-1 1zM177.5 13c-.3.5-.1 1 .4 1 .6 0 1.1-.5 1.1-1 0-.6-.2-1-.4-1-.3 0-.8.4-1.1 1zM178.2 16.1c.2.7 1 1.5 1.7 1.7.8.3 1.2-.1.9-.9-.2-.7-1-1.5-1.7-1.7-.8-.3-1.2.1-.9.9zM161 31.4c0 .9.5 1.6 1 1.6.6 0 1-.4 1-.9 0-.6-.4-1.3-1-1.6-.5-.3-1 .1-1 .9zM156 35.7c0 .5 1.1.8 2.4.8 1.3 0 2.2-.3 1.9-.8-.2-.4-1.3-.7-2.4-.7-1 0-1.9.3-1.9.7zM154.4 39.9c0 1.5.3 1.7 1.3.9.7-.6 1-1.4.7-1.9-.9-1.5-2-1-2 1zM154 47c-.8.5-1.2 1.2-.9 1.5.4.3 1.2-.1 1.9-1 1.4-1.7 1.1-1.9-1-.5zM123.2 69.4c.7.8 1.6 1 1.9.5.3-.6 1.4-.7 2.5-.3 1 .4 1.6.4 1.2-.1-.4-.4-2.1-.9-3.8-1.1-2.5-.3-2.8-.1-1.8 1zM118.8 72.5c.5 2.8.4 2.7 2.6 1.9.9-.3 1.3-1 1-1.5-.3-.5-1-.7-1.5-.4-.5.3-.6-.1-.3-.9.4-1 .1-1.6-.9-1.6s-1.3.8-.9 2.5zM117.4 78c0 1 .2 1.7.4 1.5.3-.2 1.4.1 2.6.7 1.9 1 1.9.8-.3-1.6-1.4-1.4-2.5-2.6-2.6-2.6 0 0-.1.9-.1 2zM87.8 103.7c-1.9.5-2.5 3.3-.7 3.3.5 0 .7-.5.4-1-.3-.6-.2-1 .4-1 .5 0 1.5.8 2 1.7.9 1.6 1 1.6 1.1.1 0-.9-.6-1.9-1.2-2.2-.7-.3-.3-.3.9-.1 1.2.3 2.4.1 2.8-.5.6-1-2.4-1.2-5.7-.3zM80 111.4c0 .9.5 1.6 1 1.6.6 0 1-.4 1-.9 0-.6-.4-1.3-1-1.6-.5-.3-1 .1-1 .9zM74 116c-.6 1.1-.7 2-.2 2 .6 0 1.2-.9 1.5-2 .3-1.1.3-2 .1-2-.2 0-.8.9-1.4 2zM68.6 124.9c-2 .8-1.6 1.2 1.7 2.4 1.2.5 1.7.1 1.7-1.3 0-2.1-.4-2.3-3.4-1.1zM50.2 144.1c.2.7 1 1.5 1.7 1.7.8.3 1.2-.1.9-.9-.2-.7-1-1.5-1.7-1.7-.8-.3-1.2.1-.9.9zM35.5 152c-.3.6.1.7.9.4 1.8-.7 2.1-1.4.7-1.4-.6 0-1.3.4-1.6 1zM34 159c-.9.6-1 1-.3 1 .6 0 1.5-.5 1.8-1 .8-1.2.4-1.2-1.5 0zM26.5 167c.3.5 1.1 1 1.6 1 .6 0 .7-.5.4-1-.3-.6-1.1-1-1.6-1-.6 0-.7.4-.4 1zM21 170.4c0 .2.7.7 1.6 1 .8.3 1.2.2.9-.4-.6-1-2.5-1.4-2.5-.6zM25 176.1c0 .5.5.7 1 .4.6-.3 1-.8 1-1.1 0-.2-.4-.4-1-.4-.5 0-1 .5-1 1.1zM10.2 181.6c-1 1.2-1 1.4.2 1.4 1.7 0 3-1.6 1.9-2.3-.5-.3-1.4.1-2.1.9zM.2 184.1c0 1.9.6 3.3 1.9 3.9 1.9 1.1 2.3.8 2-2.2-.2-1.2.4-1.5 1.9-1.1 1.2.3 2 .1 2-.6s-.4-.9-1-.6c-.5.3-2.2-.1-3.8-.9-2.9-1.5-2.9-1.5-3 1.5zM.1 190.6c0 1.1.3 1.4.6.6.3-.7.2-1.6-.1-1.9-.3-.4-.6.2-.5 1.3zM190.2 224.2l.3 11.3h3c1.7-.1 4.2-.4 5.8-.8 2.6-.7 2.7-.6 2.7 2.8v3.5h-8.6c-7.4 0-8.5.2-8 1.6.3.9.6 1.8.6 2 0 .2 6.4.4 14.2.4 14 0 14.1 0 12.3 2-2.2 2.5-8.7 2.7-15.9.5-2.7-.8-5.3-1.5-5.7-1.5-1 0-1.6 15.3-.7 16 1.2.9-1 7.4-3.8 11.5-1.4 2.1-2.1 4.2-1.7 4.6.9.9 6.3-2.3 12.6-7.1l2.7-2.2v2.7c0 2.3-.4 2.6-2.7 2.3-3.5-.4-4 1.5-.8 3.6 1.4.9 2.5 2.5 2.5 3.6 0 1.6.7 2 3.3 2 1.7 0 4.3-.6 5.7-1.3 2.2-1.1 2.6-2 3-8.7.5-6.7.6-7.2 1.7-5 .6 1.4 1.4 3.7 1.7 5.2 1.3 5.8 9.6 4 9.6-2.1 0-4.5-3-6.8-9.4-7.3-2.3-.1-3.6-.7-3.6-1.6 0-1.1.3-1.2 1.4-.3 1.9 1.6 9.6-.4 9.6-2.3 0-.8 2.8-2.4 6.2-3.7 3.3-1.2 9.6-4.9 14-8.1 4.3-3.2 8.5-5.8 9.4-5.8 1.1 0 1.4-.5 1-1.6-.3-.9-.6-1.7-.6-1.9 0-1.1-9.1-6.4-10.2-6-.7.3-3.1 3.3-5.3 6.7-4.2 6.5-13.3 16.3-14.3 15.3-.3-.3 0-1.1.6-1.7 1.9-1.9 1.5-2.5-3-5.2l-4.3-2.6h6.3c5.4 0 6.2-.2 6.2-1.8 0-1.1-.9-2.7-2-3.7s-2-2.2-2-2.6c0-.4 2.1-1.8 4.8-2.9 2.6-1.2 7.4-3.9 10.8-6.1 3.3-2.1 6.8-3.9 7.7-3.9 4.5 0 1.5-5.3-5.2-9.3-3.6-2.1-3.2-2.4-11.2 8.5-2.7 3.7-5.8 7.2-6.9 7.8-1.9 1-2 .7-2-4.8 0-3.2.5-6.3 1.1-6.9.7-.7.3-1.7-1.7-3.2-3.9-3.1-7.1-3.7-9.3-1.7-2.3 2.1-10.4 2.1-16.1.1-2.3-.8-4.7-1.5-5.2-1.5s-.7 5-.6 11.2zm20.3-2.2c-.8 1.3-7.5 1.3-9.5 0-1.1-.7.2-1 4.3-1 3.6 0 5.6.4 5.2 1zm.5 6c0 .5-2.5 1-5.5 1s-5.5-.5-5.5-1c0-.6 2.5-1 5.5-1s5.5.4 5.5 1zm.6 7.1c.4.7 2.2.9 4.5.6l3.9-.5-2.1 3c-2.6 3.6-6.2 3.5-6.8-.2-.1-1.4-.8-2.8-1.5-3.2-.8-.6-.8-.8.1-.8.6 0 1.5.5 1.9 1.1zm.4 19.4c0 1.2-1.3 1.5-6 1.5s-6-.3-6-1.5 1.3-1.5 6-1.5 6 .3 6 1.5zm-11.2 11c-.3.3-2-.1-3.9-.9-3.3-1.4-3.3-1.6 1.1-2.9 1.5-.4 3.8 2.8 2.8 3.8zM315.2 216l-3.3 3h-50.8l1 3 1.1 3h23.1l-.7 5.2c-.4 2.9-.9 5.5-1.2 5.7-.3.3-2.6-.3-5.2-1.3s-5.9-2.1-7.5-2.3l-2.7-.5.2 24.8.3 24.9 5.5-.3c4.1-.2 5.8-.7 6.9-2.2 1.2-1.8 2.5-2 12.5-2 10.6 0 11.2.1 12.1 2.2 1.2 2.7 6.7 3.5 10.4 1.6l2.4-1.3-.2-18.2c-.2-15.1 0-18.6 1.3-20.6 1.5-2.2 1.5-2.5-.6-4.4-5.4-4.8-9.4-5.5-12.7-2-2.1 2.3-3.1 2.5-10.1 1.9-1.9-.2-2-.4-.5-3.1.8-1.7 2.4-3.6 3.6-4.5 1.2-.8 1.8-1.9 1.5-2.5-.5-.7 3.6-1.1 12.5-1.3 9.2-.2 13.4-.7 13.6-1.5.4-1.1-7.3-10.3-8.6-10.3-.4 0-2.1 1.3-3.9 3zm-9.2 31.4c0 5.3 0 5.4-3.2 5.9-6.3.9-15.4.8-18.1-.2-2.2-.9-2.7-1.7-2.7-4.5 0-6.6 0-6.6 12.6-6.6H306v5.4zm0 17.6v6h-10.8c-11.9 0-13.2-.5-13.2-5.6 0-6.3.1-6.4 12.6-6.4H306v6zM350.3 213.7c-.7.2-1.3 1.1-1.3 2 0 2.9-6.2 16.8-9.5 21.5-3.2 4.4-4.4 7.8-2.9 7.8.4 0 2.8-1.6 5.4-3.5l4.8-3.5.7 7.3c1 11 1 11.1-5.8 11.5-5.7.3-6.2.7-5.1 3.6.5 1.4 2.8 1.6 15.1 1.6h14.5l-.3 9.7-.4 9.8h12l.3-9.8.3-9.7H391c9.4 0 13-.3 13-1.2 0-1.8-5.1-8.8-7.3-10-1.6-.8-2.6-.4-5.7 2.7-3.3 3.2-4.2 3.6-8.1 3.3l-4.4-.3-.3-5.1c-.3-6.1.2-6.4 11.1-6.4 4.9 0 6.7-.4 6.7-1.3 0-1.6-6.8-9.7-8-9.7-.5 0-2.5 1.3-4.3 3-4.8 4.2-5.7 3.9-5.7-2v-5h8.4c9.3 0 11.6-.5 11.6-2.6 0-1.6-6.7-9.4-8.1-9.4-.4 0-2.4 1.3-4.2 3-3.4 2.9-3.7 3-14.6 3-6.5 0-11.1-.4-11.1-1 0-.5 1.3-1.9 3-3.1 3.6-2.7 2.8-4.2-3.5-5.8-4.6-1.2-7.2-1.3-9.2-.4zM366 235c0 4.8-.1 5-2.9 5-2.4 0-5.8-.9-13-3.5-1.1-.4-.7-1.3 1.4-3.5 2.5-2.7 3.5-3 8.7-3h5.8v5zm-.2 16.2c-.3 4.7-.6 5.3-2.7 5.6-2.9.5-4.1-1.2-4.1-5.9 0-4.3.5-4.9 4.2-4.9 2.9 0 2.9.1 2.6 5.2z"/><path d="M362.8 238.7c.7.3 1.6.2 1.9-.1.4-.3-.2-.6-1.3-.5-1.1 0-1.4.3-.6.6zM135.7 214.7c-.4.3-.7 3.3-.7 6.5v5.8h-3.5c-2 0-5.8-1.2-8.6-2.6-2.8-1.4-5.5-2.4-6.1-2.2-.6.2-1 8.1-.9 21.8 0 16.8.3 21.5 1.3 22.1 2.5 1.4 10-.2 10.5-2.2.4-1.4 1.5-1.9 3.9-1.9h3.4v7.8c0 10.6.5 10.9 14.6 11.8 14.6.9 23.9-.1 26.4-2.9 2.4-2.5 2.5-5.5.5-9.3-.8-1.6-1.5-5.5-1.5-8.7 0-3.1-.4-5.7-.9-5.7s-1.7 2.4-2.5 5.4c-2.4 8.1-5.8 10.6-14.6 10.6-9.2 0-10-.4-10-5.1 0-3.9 0-3.9 3.9-3.9 2.2 0 4.3.4 4.6 1 .9 1.5 11.2 1.3 11.8-.3.2-.6.2-7.1-.1-14.4-.4-11.4-.3-13.6 1.2-15.8 2.3-3.5 1.6-5-3.5-7.5l-4.2-2.2-2.8 2.1c-1.8 1.3-4.3 2.1-6.9 2.1-3.9 0-4-.1-4-3.4 0-1.9.5-3.8 1-4.1 1.8-1.1 1-4.3-1.2-4.9-3.1-.8-10.3-.8-11.1.1zM135 237c0 3.9-.1 4-3.5 4s-3.5-.1-3.5-4 .1-4 3.5-4 3.5.1 3.5 4zm20 0v4h-8v-8h8v4zm-20 14.4c0 4.7-1.2 5.9-4.9 4.9-1.7-.4-2.1-1.3-2.1-4.9 0-4.4 0-4.4 3.5-4.4s3.5 0 3.5 4.4zm20 0c0 4.8-1 5.7-5.3 4.9-2.4-.5-2.7-1-2.7-4.9V247h8v4.4z"/><path d="M131.5 239c-1.9.8-1.9.9.3.9 1.2.1 2.2-.4 2.2-.9 0-.6-.1-1-.2-.9-.2 0-1.2.4-2.3.9zM151 239l-2.5.8 2.8.1c1.5.1 2.7-.4 2.7-.9 0-.6-.1-1-.2-.9-.2.1-1.4.5-2.8.9zM131.8 254.7c.7.3 1.6.2 1.9-.1.4-.3-.2-.6-1.3-.5-1.1 0-1.4.3-.6.6zM201.8 214.7c.7.3 1.6.2 1.9-.1.4-.3-.2-.6-1.3-.5-1.1 0-1.4.3-.6.6zM364.8 222.7c.7.3 1.6.2 1.9-.1.4-.3-.2-.6-1.3-.5-1.1 0-1.4.3-.6.6zM129.3 225.7c.9.2 2.5.2 3.5 0 .9-.3.1-.5-1.8-.5-1.9 0-2.7.2-1.7.5zM149.8 225.7c1.2.2 3 .2 4 0 .9-.3-.1-.5-2.3-.4-2.2 0-3 .2-1.7.4zM382.4 235.2l-1.9 2.3 2.3-1.9c2.1-1.8 2.7-2.6 1.9-2.6-.2 0-1.2 1-2.3 2.2zM390.4 251.2l-2.9 3.3 3.3-2.9c1.7-1.7 3.2-3.1 3.2-3.3 0-.8-.8-.1-3.6 2.9zM242.3 254.6c-7.3 10.4-11.8 15.5-17.4 19.8-6.3 4.8-8.4 7.6-5.6 7.6 5.8 0 22.2-8.7 28.2-15 1.6-1.6 3.7-3 4.7-3 3.9 0 3.3-3.2-1.5-7.6-2.5-2.4-5-4.4-5.6-4.4-.6 0-1.8 1.2-2.8 2.6zM164 268c-.9.6-1 1-.3 1 .6 0 1.5-.5 1.8-1 .8-1.2.4-1.2-1.5 0zM507.5 325.2c.7 1.7 4.8 2.2 4.2.5-.2-.7-1.3-1.3-2.5-1.5-1.5-.2-2 .1-1.7 1zM503 326.9c0 .5.5 1.1 1 1.3.6.2.2 1.2-.8 2.4-1.4 1.5-1.7 2.5-1 3.7.7 1.3.5 1.5-.9 1-1-.4-2.2-1.2-2.8-1.9-.8-1-1.4-1-3 .3-2 1.5-2 1.5.3 1 2-.5 2.3-.2 1.9 1.4-.4 1.6-.3 1.8.8.9 1-.8 1.5-.8 2.1.2.4.7.4 1-.1.6-.9-.9-3.5.9-3.5 2.4 0 .5.6.6 1.3.3.6-.4 0 .3-1.5 1.5-1.6 1.2-2.8 3-2.8 4.1 0 1.3-.6 1.9-1.7 1.7-1.2-.2-1.8.3-1.7 1.4.1 1-.2 1.5-.7 1.3-.4-.3-2 .7-3.5 2.2-1.4 1.6-2.3 2.2-2 1.5.5-.8-.3-1.2-2.8-1.2-1.9 0-3.6.6-3.9 1.2-.8 2.4.5 4.8 2.7 4.9 2 0 2 .1.1.8-1.1.5-2.1.4-2.3 0-.2-.5-1.5-.9-2.9-.9-2.3 0-2.5.3-2 2.9.5 2.4.2 3-1.6 3.5-1.2.3-2.9-.1-3.9-1.1-2.4-2.2-2.3-1.2.2 1.7 1.7 2 2.2 2.1 3.7.9 1.6-1.3 1.7-1.2.5.2-.7.9-2.6 2.3-4.3 2.9-2.2 1-2.9 1.8-2.6 3.2.7 2.6 0 2.2-1.8-1l-1.5-2.7.6 3c.4 2 .3 2.6-.4 1.7-.7-1.1-1-1.1-1.5.2-.4.9-.2 1.6.2 1.6.5 0 .7.9.4 2.1-.4 1.5-.8 1.7-1.4.8-.6-1-1.1-1-2.3 0-.9.7-2.1 1.1-2.8.8-.7-.2-1.9.2-2.6.9-1 1.1-.8 1.5.9 2.4 2 1.1 2 1.2.2 2.5-2.4 1.9-4.3 1.9-4.3 0 0-.8.5-1.5 1.2-1.5.6 0 .8-.3.5-.7-.4-.3-1.5.2-2.6 1.3-1.5 1.6-1.6 2.2-.4 3.2 1.5 1.4 1.8 3.6.4 2.7-1.2-.7-3 2.5-2.4 4.1.5 1.4-4.2 3.8-5.8 2.9-.8-.5-1-.4-.5.3.5.8-.3 1.2-2.3 1.2-1.7 0-3.4.7-3.9 1.6-.5.9-1.2 1.5-1.5 1.5-.4-.1-1.6.4-2.7 1.1-1.8 1.1-1.8 1.4-.3 3 1.5 1.7 1.5 1.8 0 1.8-1.1 0-1.6.7-1.4 2.2.1 1.5-.4 2.3-1.8 2.6-1.1.2-2.6 1.1-3.4 2-.9 1.2-1.5 1.3-1.8.5-.5-1.4-3.3-.6-3.3.9 0 .6.6.8 1.3.5.7-.3 1.9.4 2.5 1.4.8 1.2.8 1.9.2 1.9-.5 0-1-.5-1-1 0-.6-.5-1-1.1-1-.5 0-.7.4-.4 1 .3.5 0 1-.9 1-.8 0-1.6-.4-1.8-.9-.1-.4-1.2-.5-2.3 0-1.9.7-1.9.8.3.8 1.2.1 2.2.5 2.2 1.1 0 1-2.1 1.4-4.8 1.1-1-.2-1.1.2-.2 1.8.8 1.6.8 1.9-.3 1.5-.9-.3-1.3.3-1.3 1.8.1 1.9-.4 2.2-2.3 2-1.5-.2-2.1 0-1.7.7.4.6-.1 1.1-1.1 1.1-1.5 0-1.5.2-.3.9.8.6 1.8.7 2.2.5.4-.3.8-.1.8.5 0 1.6-1.8 2.2-2.4.9-.5-1-.7-1-1.2-.1-.4.9-1.1 1-2.4.3-1.4-.7-1.7-.6-1.6.8.1 1.2-.6 1.6-2.1 1.5-1.3-.2-2.3.2-2.3.7 0 .6-.6 1-1.4 1-.7 0-1.9.7-2.6 1.5-.9 1-.9 1.5-.1 1.5.6 0 1.1-.5 1.1-1 0-.6.9-1 2-1s2 .5 2 1.1c0 .5.6.7 1.3.3.6-.4-.3.9-2.1 2.8-2.3 2.4-4 3.4-5.3 3.1-1-.3-1.9 0-1.9.6s.4 1.1.8 1.1c1.7 0 .8 3-1 3.6-1 .3-1.8 1-1.8 1.5 0 .6-.7.6-1.9-.1-2.9-1.5-5.1-1.3-4.5.5.4.8 1 1.3 1.4 1 1.4-.8 3.9.6 3.4 1.9-.3.7-1.9 1.1-4.2 1-2-.2-4.5.3-5.5 1.1-1.6 1.1-1.7 1.7-.6 3.7 1.1 2.1 1.1 2.2-.4 1-.9-.8-2.2-1-2.8-.6-.9.5-.7 1.1.7 2.2 1.8 1.4 1.8 1.4-.3.9-1.3-.3-2.3-.1-2.3.5 0 .5-.4.6-1 .3-.5-.3-1-.1-1 .4 0 .6.6 1.1 1.3 1.2.6 0 .1.4-1.1 1-1.3.5-2.9.6-3.4.2-.7-.4-.8-.1-.4.6.5.7 1.4 1 2.2.7 1.1-.4 1.3.1.8 2.2-1 4.1-2.3 6.2-3.9 6.2-.8 0-1.5-.8-1.5-1.8-.1-1-.6-.4-1.5 1.5-1.2 2.9-1.6 3.1-4.9 2.3-3.6-.8-4.8.1-5 4-.1.8-1.1 1.6-2.4 1.8-2 .3-2.2.8-1.7 3.1.5 2.4.2 2.9-1.7 3.4-1.4.4-2.9 0-4.1-1.1-1.8-1.6-1.8-1.6-.6 1.1 1.3 3 2.7 3.4 4.9 1.4 1.2-1 1.2-.9.2.4-.7.9-2.6 2.3-4.3 2.9-2.2 1-2.9 1.8-2.6 3.2.7 2.6 0 2.2-1.8-.9-1.4-2.5-1.5-2.5-.9-.4.4 1.5.2 2.1-.4 1.7-.5-.3-1.3.1-1.6 1-.9 2.2-.8 2.6.6 1.8.7-.4.8-.3.4.5-.4.6-1.1.9-1.6.6-.4-.3-1.3.2-2 1.1-.7.8-2 1.2-2.7.9-2.1-.7-4.5 1.9-3 3.4.8.8 26.1 1.1 94.4 1.1H512v-90.9c0-74.2-.2-91.1-1.3-92-1-.7-1.6-.8-2.4 0-.8.8-1.5.6-2.5-1-1.3-2.2-2.8-2.8-2.8-1.2zm7 4.1c-.8.5-1.9 1-2.5 1-.5 0-.3-.5.5-1s2-1 2.5-1c.6 0 .3.5-.5 1zm-4.6 1.5c-.6 1.6-2.4 2.1-2.4.7 0-1.1 1.1-2.2 2.1-2.2.5 0 .6.7.3 1.5zM483 356.6c0 1.2-.4 1.2-2 .2-1.3-.8-1.6-1.5-.8-1.9 1.5-1 2.8-.2 2.8 1.7zm-5.6 6c.7 1.9.2 1.8-1.9-.6-1.6-1.7-1.6-2-.3-1.5.9.4 1.9 1.3 2.2 2.1zM444 400c0 .5-.8 1-1.7 1-1.5 0-1.6-.2-.3-1 1.9-1.2 2-1.2 2 0zm-8 2.5c.7.9.8 1.5.2 1.5-.5 0-1.2-.7-1.6-1.5-.3-.8-.4-1.5-.2-1.5s.9.7 1.6 1.5zm-4.7 2.9c.4 1 .1 1.3-.9.9-1.5-.6-1.9-2.3-.5-2.3.5 0 1.1.7 1.4 1.4zm-50 53.9c-.3.5-1.1.6-1.9.3-.8-.3-1.7.1-2 .9-.8 2.1-2.3 1.9-1.9-.3.2-.9.4-1.8.4-1.9.1-.1 1.4-.1 3 0s2.7.6 2.4 1zm-26.4 25.5c0 1.1-.3 1.2-.6.4-.2-.6-1.2-1.2-2.1-1.2-1.4 0-1.5-.2-.2-.9 1.8-1.2 3-.5 2.9 1.7zm-1.9 2.6c0 .2-.7.6-1.5 1-.8.3-1.5.1-1.5-.4 0-.6.7-1 1.5-1s1.5.2 1.5.4z"/><path d="M495 339.5c0 1.4-1.3 2-3.5 1.5-.6-.1-.6.3.1 1 1.5 1.5 4.4.2 4.4-2.1 0-1-.2-1.9-.5-1.9s-.5.7-.5 1.5zM117.3 343.7c-.7.2-1.3 1.6-1.3 2.9 0 1.9.5 2.4 2.5 2.4 2.1 0 2.5-.5 2.5-3 0-2.9-.9-3.5-3.7-2.3zM139.8 344.7c-4.7.5-5.4 3.3-.8 3.3h3v19h-3.5c-2.4 0-3.5.5-3.5 1.5 0 1.2 1.7 1.5 9 1.5s9-.3 9-1.5c0-1-1.1-1.5-3.5-1.5H146v-11.5c0-8.6-.3-11.5-1.2-11.3-.7.1-3 .3-5 .5zM488.6 344.9c-.4.5.3.7 1.4.4 2.3-.6 2.6-1.3.6-1.3-.8 0-1.7.4-2 .9zM215.4 347.4c-6.9 3.1-9.5 11.2-5.7 17.7 1.7 2.9 6.7 5.9 9.7 5.9 2.3 0 9.6-3.1 9.6-4 0-1.5-2-2.2-3.3-1.2-.7.5-2.7 1.3-4.4 1.7-2.8.6-3.7.2-6.3-2.3-2.4-2.4-3-3.9-3-7.2 0-4.6 3.4-9 7-9 2.1 0 6.3 3.5 7.2 6 .8 2.6 2.8-.2 2.8-4.1 0-3-.4-3.9-1.7-3.9-1 0-3.4-.2-5.3-.5s-4.9.1-6.6.9zM84 348.5c0 .8.7 1.5 1.5 1.5 1.2 0 1.5 1.6 1.5 8.5s-.3 8.5-1.5 8.5c-.8 0-1.5.7-1.5 1.5 0 1.2 1.3 1.5 6 1.5 4.5 0 6-.3 6-1.4 0-.8-1-1.6-2.2-1.8-1.8-.2-2.4-1.1-2.6-3.6-.3-2.9-.1-3.2 2.2-3.2 1.4 0 2.6.4 2.6 1 0 .5.7 1 1.5 1 1.1 0 1.5-1.2 1.5-4.5 0-4.4-1.5-6-2.6-3-.4.8-1.7 1.5-3 1.5-2 0-2.4-.5-2.4-3 0-2.9.1-3 5-3 4.7 0 5 .2 5 2.5 0 1.6.6 2.5 1.5 2.5 1.1 0 1.5-1.1 1.5-4v-4H94c-8.2 0-10 .3-10 1.5zM287 349.5c0 1.6-.6 2.5-1.5 2.5-.8 0-1.5.7-1.5 1.5s.7 1.5 1.5 1.5c1.2 0 1.5 1.3 1.5 5.9 0 4.1.5 6.5 1.6 7.5 3 3 14.4 1.4 14.4-2 0-1.2-.5-1.4-1.7-.9-1 .5-3.3 1-5.2 1.3-4 .5-6.1-1.5-6.1-5.9 0-5.1.8-5.9 6.1-5.9 3.6 0 4.9-.4 4.9-1.4 0-1.1-1.5-1.6-5.2-1.8-4.6-.3-5.3-.6-5.6-2.6-.5-3.1-3.2-2.9-3.2.3zM484.5 348c-.4.6.6 1 2.2 1 2.2 0 2.5-.2 1.3-1-1.9-1.2-2.7-1.2-3.5 0zM317.8 349.7c.6.2 1.8.2 2.5 0 .6-.3.1-.5-1.3-.5-1.4 0-1.9.2-1.2.5zM367.3 349.7c.9.2 2.3.2 3 0 .6-.3-.1-.5-1.8-.5-1.6 0-2.2.2-1.2.5zM396.1 350.1c-3.9 1.6-1.8 1.9 2.4.4 2.2-.8 3.1-1.4 2-1.4s-3.1.5-4.4 1zM337.8 350.7c1.2.2 3 .2 4 0 .9-.3-.1-.5-2.3-.4-2.2 0-3 .2-1.7.4zM362.8 350.7c.7.3 1.6.2 1.9-.1.4-.3-.2-.6-1.3-.5-1.1 0-1.4.3-.6.6zM386.8 350.7c1.2.2 3 .2 4 0 .9-.3-.1-.5-2.3-.4-2.2 0-3 .2-1.7.4zM408.8 350.7c1.2.2 3.2.2 4.5 0 1.2-.2.2-.4-2.3-.4s-3.5.2-2.2.4zM420.3 351.5c-.3.9-.3 1.9.1 2.2.3.4.6-.1.6-1 0-1.1 1.2-1.7 4.3-2l4.2-.4-4.3-.1c-3-.1-4.4.2-4.9 1.3zM161.3 351.7c-3.8.3-5.3.8-5.3 1.9 0 .7.7 1.4 1.5 1.4 1.2 0 1.5 1.3 1.5 6s-.3 6-1.5 6c-.8 0-1.5.7-1.5 1.5 0 1.1 1.2 1.5 5 1.5s5-.4 5-1.5c0-.8-.7-1.5-1.5-1.5-1.3 0-1.5-1.1-1.3-5.8.3-4.9.6-5.7 2.3-5.7 1.8 0 2 .8 2.3 7.2l.3 7.3h2.9c3.2 0 4.2-2.3 1.5-3.4-1-.3-1.5-1.9-1.5-4.5 0-5.2.8-7.1 3.1-7.1 1.7 0 1.9.8 1.9 7.5v7.5h3c2 0 3-.5 3-1.5 0-.8-.4-1.5-1-1.5-.5 0-1-2.4-1-5.4 0-3-.3-6.2-.6-7-1-2.7-3.9-3.7-7-2.6-1.9.8-3 .8-3.8 0-.5-.5-1.2-.9-1.5-.8-.4.1-3 .3-5.8.5zM241 352.1c-4.6 1.9-7 5-7 9.1 0 5.6 3.7 8.8 10.1 8.8 5.3 0 10.2-1.7 9.6-3.4-.2-.6-1.3-.9-2.3-.8-9 1.7-13.4.9-13.4-2.3 0-1.2 1.6-1.5 8-1.5 7.4 0 8-.2 8-2.1 0-3.3-1.9-6-5.5-7.5-3.9-1.6-4.1-1.6-7.5-.3zm6 2.9c.5 0 1.4.9 2 2 1 1.9.8 2-5 2-4.5 0-6.1-.3-5.8-1.3.6-1.6 5-3.8 6.6-3.2.8.3 1.8.5 2.2.5zM269.8 351.6c-.4.4-3.2.6-6.3.5-4.3-.1-5.5.2-5.5 1.4 0 .8.7 1.5 1.5 1.5 1.2 0 1.5 1.3 1.5 6s-.3 6-1.5 6c-.8 0-1.5.7-1.5 1.5 0 1.1 1.2 1.5 5 1.5s5-.4 5-1.5c0-.8-.7-1.5-1.6-1.5-1.2 0-1.4-1-1.2-5.2.3-4.7.6-5.4 3.1-6.6 4.1-2 5.7-.2 5.7 6.3 0 4.4-.3 5.4-2 5.8-4.1 1.1-2 2.7 3.5 2.7 4.2 0 5.5-.3 5.5-1.5 0-.8-.6-1.5-1.4-1.5-1.9 0-2.6-2.2-2.6-7.8 0-2.6-.4-5.2-.8-5.9-.9-1.4-5.5-2.7-6.4-1.7zM316 352.1c-4.6 1.9-7 5-7 9.1 0 5.6 3.7 8.8 10.1 8.8 5.3 0 10.2-1.7 9.6-3.4-.2-.6-1.3-.9-2.3-.8-9 1.7-13.4.9-13.4-2.3 0-1.2 1.6-1.5 8-1.5 7.4 0 8-.2 8-2.1 0-3.1-1.7-5.7-5-7.4-3.3-1.7-4.5-1.8-8-.4zm6 2.9c.5 0 1.4.9 2 2 1 1.9.8 2-5 2-4.5 0-6.1-.3-5.8-1.3.6-1.6 5-3.8 6.6-3.2.8.3 1.8.5 2.2.5zM344.7 351.6c-.3.3-3 .6-6.1.6-4 .1-5.6.5-5.6 1.5 0 .7.7 1.3 1.5 1.3 1.2 0 1.5 1.3 1.5 6s-.3 6-1.5 6c-.8 0-1.5.7-1.5 1.5 0 1.1 1.2 1.5 5 1.5s5-.4 5-1.5c0-.8-.7-1.5-1.6-1.5-1.2 0-1.4-1-1.2-5.2.3-4.7.6-5.4 3.1-6.6 4.1-2 5.7-.2 5.7 6.3 0 4.4-.3 5.4-2 5.8-4.1 1.1-2 2.7 3.5 2.7 4 0 5.5-.4 5.5-1.4 0-.7-.9-1.6-2-1.9-1.7-.4-2-1.4-2-6.4 0-3.2-.4-6.3-.8-6.9-.8-1.3-5.6-2.6-6.5-1.8zM363.8 352.2c-2.4.6-3.5 1.4-3.2 2.3.4 1 2 1.2 6 .8 4.6-.5 5.4-.3 5.4 1.1 0 1.2-.9 1.6-3.9 1.6-7 0-11.7 6.3-7.6 10.3 2 2 19.5 2.2 19.5.2 0-.7-.9-1.5-2-1.8-1.7-.4-2-1.4-2-6.5 0-3.8-.5-6.4-1.3-7.1-2.1-1.7-6.8-2.1-10.9-.9zm8.2 9.5c0 .5-1.7 1.6-3.8 2.5-3.5 1.7-2.1 1.9 2.3.3 2-.7 2-.6.1.9-2.5 2.1-6 2-7.7 0-1.1-1.4-1-1.8.6-3 2-1.5 8.5-2 8.5-.7z"/><path d="M396.3 352.6c-1.9.8-3.3 1-3.3.4 0-1.1-3.3-1.3-6.7-.4-3.1.8-2.9 2.4.2 2.4 2.4 0 2.5.3 2.5 6s-.1 6-2.5 6c-1.6 0-2.5.6-2.5 1.5 0 1.2 1.6 1.5 8 1.5 6.3 0 8-.3 8-1.4 0-.9-1.2-1.6-3.2-1.8-2.9-.3-3.3-.7-3.6-3.7-.5-5.1 3-8.4 8-7.6 2.3.4 3.8.3 3.8-.3s.3-1.9.6-2.9c.4-1.3.3-1.5-.4-.4-.7.9-1.2 1-1.6.2-.9-1.4-3.3-1.3-7.3.5zM112.3 352.7c-2.4.9-1.3 2.3 1.7 2.3h3v12h-3.5c-2.4 0-3.5.5-3.5 1.5 0 1.2 1.7 1.5 9 1.5 7.2 0 9-.3 9-1.4 0-.9-1.2-1.6-3.2-1.8l-3.3-.3-.3-7.3-.3-7.2-3.7.1c-2 0-4.3.3-4.9.6zM407 353.7c0 .7.6 1.3 1.3 1.3 1.5 0 7.7 11.1 7.7 13.8 0 2.5-1.8 3.9-5.4 4.4-1.6.1-3.1.9-3.4 1.5-.3 1 1.5 1.3 6.7 1.3 5.6 0 7.1-.3 7.1-1.5 0-.8-.5-1.5-1.1-1.5-1.6 0-.9-1.7 4.1-10.3 2.5-4.2 5.1-7.7 5.8-7.7.6 0 1.2-.7 1.2-1.5 0-1.2-1-1.5-4.5-1.4-4.3.3-6.2 2.2-3.3 3.1.9.3.4 1.8-1.6 4.8l-2.8 4.2-2.6-4.3c-1.7-2.8-2.1-4.4-1.4-4.7.7-.2 1.2-1 1.2-1.8 0-1.1-1.1-1.4-4.5-1.3-2.9.2-4.5.7-4.5 1.6z"/><path d="M419.6 358.4c-1.8 2.8-2 3.6-.8 3.6 1 0 3.5-5 2.9-5.7-.2-.2-1.2.8-2.1 2.1zM467.2 357.6c-.7.8-.8 1.4-.3 1.4 1 0 2.5-1.9 2-2.5-.2-.1-1 .3-1.7 1.1zM334.3 361.5c0 2.2.2 3 .4 1.7.2-1.2.2-3 0-4-.3-.9-.5.1-.4 2.3zM387 360.8c0 1.5-.5 3.3-1.2 4-.9.9-.8 1.2.5 1.2s1.7-.9 1.7-4c0-2.2-.2-4-.5-4s-.5 1.3-.5 2.8zM428.6 360.2c-2.5 3.5-1.9 4.6.9 1.6 2.7-2.9 3-3.8 1.6-3.8-.6 0-1.7 1-2.5 2.2zM470 361.4c0 .8.4 1.7.9 2.1.6.3.9-.4.8-1.5-.1-2.3-1.7-2.8-1.7-.6zM320 365c-3.5.7-3.5.7-.5.9 1.7 0 3.7-.4 4.5-.9 1.7-1.1 1.1-1.1-4 0zM346 365c0 .5.5 1 1 1 .6 0 1-.5 1-1 0-.6-.4-1-1-1-.5 0-1 .4-1 1zM394 364.4c0 1 2.8 1.3 4.1.5 1-.6.7-.9-1.3-.9-1.6 0-2.8.2-2.8.4zM243.3 365.7c.9.2 2.3.2 3 0 .6-.3-.1-.5-1.8-.5-1.6 0-2.2.2-1.2.5zM293.8 365.7c.6.2 1.8.2 2.5 0 .6-.3.1-.5-1.3-.5-1.4 0-1.9.2-1.2.5zM424 368.2c-1.8 3.1-1.8 5.4.1 4.2.5-.3.7-1 .4-1.5-.4-.5-.1-.9.5-.9.7 0 1-.6.7-1.3-.2-.6.3-1.7 1.2-2.4 1.1-.8 1.2-1.2.3-1.3-.7 0-2.1 1.4-3.2 3.2zM413.7 368.5c-.4.8-1.8 1.5-3.2 1.5-1.4 0-2.5.4-2.5 1 0 .5 1.3 1 2.9 1 2.1 0 3.2-.6 3.6-2.1.8-2.4 0-3.7-.8-1.4zM464 368c0 .5.5 1 1.1 1 .5 0 .7-.5.4-1-.3-.6-.8-1-1.1-1-.2 0-.4.4-.4 1zM405.5 372.1c-.4.6-.5 1.2-.2 1.5.2.3.7-.2 1-1.1.7-1.7.1-2-.8-.4zM451 374c0 .5.5 1 1.1 1 .5 0 .7-.5.4-1-.3-.6-.8-1-1.1-1-.2 0-.4.4-.4 1zM414.7 379.1c.6.6 2.3 1.1 3.8 1.1s3.2-.5 3.8-1.1c.8-.8-.2-1.1-3.8-1.1-3.6 0-4.6.3-3.8 1.1zM439.2 392.5c-1 1.2-1 1.5 0 1.5.7 0 2.4.3 3.7.7 1.7.4 2.2.3 1.7-.6-.4-.6-1.2-.9-1.7-.6-.5.4-.9-.1-.9-.9 0-2-1.1-2-2.8-.1zM422.7 408.6c-.8 1.3 2 4.1 3 3 .3-.3.1-.6-.5-.6s-1.2-.8-1.4-1.8c-.2-1.1-.6-1.3-1.1-.6zM410.5 414.9c-.2.5.4 1.1 1.5 1.4 1.1.3 2 .2 2-.3 0-1.2-2.8-2.1-3.5-1.1zM396.7 428c1.2 1.3 2.1 1.6 2.9.9.6-.5 2-.6 3-.2 1.6.6 1.7.5.4-.9-1.1-1.1-2-1.3-3.2-.7-1.2.6-1.8.6-1.8-.1 0-.5-.7-1-1.5-1-1.2 0-1.2.3.2 2zM406 427c0 .5.5 1 1 1 .6 0 1-.5 1-1 0-.6-.4-1-1-1-.5 0-1 .4-1 1zM393.5 442c-.3.5-.2 1 .4 1 .5 0 1.3-.5 1.6-1 .3-.6.2-1-.4-1-.5 0-1.3.4-1.6 1zM385.6 442.8c-.3.6.3 1.2 1.5 1.5 1.2.3 1.9.1 1.6-.6-.5-1.5-2.4-2-3.1-.9zM385.1 449.9c-.8.6-.9 1.1-.3 1.5.6.3 1.4.1 1.7-.5.9-1.4.2-2-1.4-1zM375 455c0 .5.5 1 1 1 .6 0 1-.5 1-1 0-.6-.4-1-1-1-.5 0-1 .4-1 1zM367.7 461c-1.8 2.1-.4 2.8 2.3 1 1-.6 1.2-1.2.5-1.9-.8-.8-1.6-.5-2.8.9zM362 473.1c0 .5.5.7 1 .4.6-.3 1-.8 1-1.1 0-.2-.4-.4-1-.4-.5 0-1 .5-1 1.1zM356 476c0 .5.7 1 1.5 1s1.5-.5 1.5-1c0-.6-.7-1-1.5-1s-1.5.4-1.5 1zM362.1 476.6c0 1.1.3 1.4.6.6.3-.7.2-1.6-.1-1.9-.3-.4-.6.2-.5 1.3zM356 479c0 .5.5 1 1.1 1 .5 0 .7-.5.4-1-.3-.6-.8-1-1.1-1-.2 0-.4.4-.4 1zM344.6 483.8c-.2.4.4.8 1.5.8 1 0 1.9-.4 1.9-.8s-.6-.8-1.4-.8c-.8 0-1.7.4-2 .8zM342 489.5c0 .8.4 1.5.8 1.5.5 0 .9-.7.9-1.5s-.4-1.5-.9-1.5c-.4 0-.8.7-.8 1.5zM336 496c0 .5.5 1 1.1 1 .5 0 .7-.5.4-1-.3-.6-.8-1-1.1-1-.2 0-.4.4-.4 1zM323 502c0 .5.5 1 1.1 1 .5 0 .7-.5.4-1-.3-.6-.8-1-1.1-1-.2 0-.4.4-.4 1zM329 504c0 .5.5 1 1.1 1 .5 0 .7-.5.4-1-.3-.6-.8-1-1.1-1-.2 0-.4.4-.4 1z"/></svg>